ISO-10303-21;
HEADER;
/* Generated by software containing ST-Developer
 * from STEP Tools, Inc. (www.steptools.com) 
 */
/* OPTION: using custom renumber hook */

FILE_DESCRIPTION(
/* description */ ('STEP AP242 Edition 2',
'CAx-IF Rec.Pracs.---Representation and Presentation of Product Manufa
cturing Information (PMI)---4.0---2014-10-13',
'CAx-IF Rec.Pracs.---3D Tessellated Geometry---0.4---2014-09-14','2;1',
'CAx-IF Rec.Pracs.---User Defined Attributes---1.5---2016-08-15'),
/* implementation_level */ '2;1');

FILE_NAME(
/* name */ 'Part Studio 1',
/* time_stamp */ '2026-07-23T10:21:43Z',
/* author */ (''),
/* organization */ (''),
/* preprocessor_version */ 'ST-DEVELOPER v20',
/* originating_system */ 'ONSHAPE BY PTC INC, 1.218',
/* authorisation */ '  ');

FILE_SCHEMA (('AP242_MANAGED_MODEL_BASED_3D_ENGINEERING_MIM_LF { 1 0 10303 442 3 1 4 }'));
ENDSEC;

DATA;
#10=SHAPE_REPRESENTATION_RELATIONSHIP('','',#488,#11);
#11=ADVANCED_BREP_SHAPE_REPRESENTATION('',(#486),#766);
#12=CIRCLE('',#501,0.0098);
#13=CIRCLE('',#502,0.0098);
#14=CYLINDRICAL_SURFACE('',#500,0.0098);
#15=B_SPLINE_CURVE_WITH_KNOTS('',3,(#654,#655,#656,#657),.UNSPECIFIED.,
 .F.,.F.,(4,4),(0.88,1.),.UNSPECIFIED.);
#16=ORIENTED_EDGE('',*,*,#148,.T.);
#17=ORIENTED_EDGE('',*,*,#149,.T.);
#18=ORIENTED_EDGE('',*,*,#150,.F.);
#19=ORIENTED_EDGE('',*,*,#151,.F.);
#20=ORIENTED_EDGE('',*,*,#152,.T.);
#21=ORIENTED_EDGE('',*,*,#153,.T.);
#22=ORIENTED_EDGE('',*,*,#154,.T.);
#23=ORIENTED_EDGE('',*,*,#155,.F.);
#24=ORIENTED_EDGE('',*,*,#156,.F.);
#25=ORIENTED_EDGE('',*,*,#157,.T.);
#26=ORIENTED_EDGE('',*,*,#158,.F.);
#27=ORIENTED_EDGE('',*,*,#159,.F.);
#28=ORIENTED_EDGE('',*,*,#160,.F.);
#29=ORIENTED_EDGE('',*,*,#161,.F.);
#30=ORIENTED_EDGE('',*,*,#162,.T.);
#31=ORIENTED_EDGE('',*,*,#163,.F.);
#32=ORIENTED_EDGE('',*,*,#164,.T.);
#33=ORIENTED_EDGE('',*,*,#151,.T.);
#34=ORIENTED_EDGE('',*,*,#165,.T.);
#35=ORIENTED_EDGE('',*,*,#166,.T.);
#36=ORIENTED_EDGE('',*,*,#149,.F.);
#37=ORIENTED_EDGE('',*,*,#167,.F.);
#38=ORIENTED_EDGE('',*,*,#168,.T.);
#39=ORIENTED_EDGE('',*,*,#169,.F.);
#40=ORIENTED_EDGE('',*,*,#170,.F.);
#41=ORIENTED_EDGE('',*,*,#171,.T.);
#42=ORIENTED_EDGE('',*,*,#172,.T.);
#43=ORIENTED_EDGE('',*,*,#173,.F.);
#44=ORIENTED_EDGE('',*,*,#174,.T.);
#45=ORIENTED_EDGE('',*,*,#175,.T.);
#46=ORIENTED_EDGE('',*,*,#176,.F.);
#47=ORIENTED_EDGE('',*,*,#177,.F.);
#48=ORIENTED_EDGE('',*,*,#178,.F.);
#49=ORIENTED_EDGE('',*,*,#179,.F.);
#50=ORIENTED_EDGE('',*,*,#180,.T.);
#51=ORIENTED_EDGE('',*,*,#181,.T.);
#52=ORIENTED_EDGE('',*,*,#182,.T.);
#53=ORIENTED_EDGE('',*,*,#183,.T.);
#54=ORIENTED_EDGE('',*,*,#184,.F.);
#55=ORIENTED_EDGE('',*,*,#185,.F.);
#56=ORIENTED_EDGE('',*,*,#186,.F.);
#57=ORIENTED_EDGE('',*,*,#156,.T.);
#58=ORIENTED_EDGE('',*,*,#187,.T.);
#59=ORIENTED_EDGE('',*,*,#171,.F.);
#60=ORIENTED_EDGE('',*,*,#154,.F.);
#61=ORIENTED_EDGE('',*,*,#188,.T.);
#62=ORIENTED_EDGE('',*,*,#173,.T.);
#63=ORIENTED_EDGE('',*,*,#189,.F.);
#64=ORIENTED_EDGE('',*,*,#190,.T.);
#65=ORIENTED_EDGE('',*,*,#152,.F.);
#66=ORIENTED_EDGE('',*,*,#164,.F.);
#67=ORIENTED_EDGE('',*,*,#191,.T.);
#68=ORIENTED_EDGE('',*,*,#192,.T.);
#69=ORIENTED_EDGE('',*,*,#158,.T.);
#70=ORIENTED_EDGE('',*,*,#193,.F.);
#71=ORIENTED_EDGE('',*,*,#194,.F.);
#72=ORIENTED_EDGE('',*,*,#195,.F.);
#73=ORIENTED_EDGE('',*,*,#196,.T.);
#74=ORIENTED_EDGE('',*,*,#197,.T.);
#75=ORIENTED_EDGE('',*,*,#192,.F.);
#76=ORIENTED_EDGE('',*,*,#198,.T.);
#77=ORIENTED_EDGE('',*,*,#199,.T.);
#78=ORIENTED_EDGE('',*,*,#200,.T.);
#79=ORIENTED_EDGE('',*,*,#199,.F.);
#80=ORIENTED_EDGE('',*,*,#201,.T.);
#81=ORIENTED_EDGE('',*,*,#194,.T.);
#82=ORIENTED_EDGE('',*,*,#168,.F.);
#83=ORIENTED_EDGE('',*,*,#202,.T.);
#84=ORIENTED_EDGE('',*,*,#178,.T.);
#85=ORIENTED_EDGE('',*,*,#203,.F.);
#86=ORIENTED_EDGE('',*,*,#165,.F.);
#87=ORIENTED_EDGE('',*,*,#169,.T.);
#88=ORIENTED_EDGE('',*,*,#155,.T.);
#89=ORIENTED_EDGE('',*,*,#189,.T.);
#90=ORIENTED_EDGE('',*,*,#172,.F.);
#91=ORIENTED_EDGE('',*,*,#187,.F.);
#92=ORIENTED_EDGE('',*,*,#161,.T.);
#93=ORIENTED_EDGE('',*,*,#204,.T.);
#94=ORIENTED_EDGE('',*,*,#180,.F.);
#95=ORIENTED_EDGE('',*,*,#205,.F.);
#96=ORIENTED_EDGE('',*,*,#206,.T.);
#97=ORIENTED_EDGE('',*,*,#207,.T.);
#98=ORIENTED_EDGE('',*,*,#208,.T.);
#99=ORIENTED_EDGE('',*,*,#195,.T.);
#100=ORIENTED_EDGE('',*,*,#201,.F.);
#101=ORIENTED_EDGE('',*,*,#198,.F.);
#102=ORIENTED_EDGE('',*,*,#191,.F.);
#103=ORIENTED_EDGE('',*,*,#163,.T.);
#104=ORIENTED_EDGE('',*,*,#162,.F.);
#105=ORIENTED_EDGE('',*,*,#202,.F.);
#106=ORIENTED_EDGE('',*,*,#167,.T.);
#107=ORIENTED_EDGE('',*,*,#148,.F.);
#108=ORIENTED_EDGE('',*,*,#209,.F.);
#109=ORIENTED_EDGE('',*,*,#205,.T.);
#110=ORIENTED_EDGE('',*,*,#179,.T.);
#111=ORIENTED_EDGE('',*,*,#203,.T.);
#112=ORIENTED_EDGE('',*,*,#181,.F.);
#113=ORIENTED_EDGE('',*,*,#204,.F.);
#114=ORIENTED_EDGE('',*,*,#160,.T.);
#115=ORIENTED_EDGE('',*,*,#150,.T.);
#116=ORIENTED_EDGE('',*,*,#166,.F.);
#117=ORIENTED_EDGE('',*,*,#159,.T.);
#118=ORIENTED_EDGE('',*,*,#196,.F.);
#119=ORIENTED_EDGE('',*,*,#208,.F.);
#120=ORIENTED_EDGE('',*,*,#207,.F.);
#121=ORIENTED_EDGE('',*,*,#206,.F.);
#122=ORIENTED_EDGE('',*,*,#209,.T.);
#123=ORIENTED_EDGE('',*,*,#193,.T.);
#124=ORIENTED_EDGE('',*,*,#157,.F.);
#125=ORIENTED_EDGE('',*,*,#186,.T.);
#126=ORIENTED_EDGE('',*,*,#170,.T.);
#127=ORIENTED_EDGE('',*,*,#188,.F.);
#128=ORIENTED_EDGE('',*,*,#153,.F.);
#129=ORIENTED_EDGE('',*,*,#190,.F.);
#130=ORIENTED_EDGE('',*,*,#197,.F.);
#131=ORIENTED_EDGE('',*,*,#200,.F.);
#132=ORIENTED_EDGE('',*,*,#210,.T.);
#133=ORIENTED_EDGE('',*,*,#174,.F.);
#134=ORIENTED_EDGE('',*,*,#211,.F.);
#135=ORIENTED_EDGE('',*,*,#183,.F.);
#136=ORIENTED_EDGE('',*,*,#184,.T.);
#137=ORIENTED_EDGE('',*,*,#211,.T.);
#138=ORIENTED_EDGE('',*,*,#177,.T.);
#139=ORIENTED_EDGE('',*,*,#212,.F.);
#140=ORIENTED_EDGE('',*,*,#185,.T.);
#141=ORIENTED_EDGE('',*,*,#212,.T.);
#142=ORIENTED_EDGE('',*,*,#176,.T.);
#143=ORIENTED_EDGE('',*,*,#213,.F.);
#144=ORIENTED_EDGE('',*,*,#213,.T.);
#145=ORIENTED_EDGE('',*,*,#175,.F.);
#146=ORIENTED_EDGE('',*,*,#210,.F.);
#147=ORIENTED_EDGE('',*,*,#182,.F.);
#148=EDGE_CURVE('',#214,#215,#260,.T.);
#149=EDGE_CURVE('',#215,#216,#261,.T.);
#150=EDGE_CURVE('',#217,#216,#262,.T.);
#151=EDGE_CURVE('',#218,#217,#263,.T.);
#152=EDGE_CURVE('',#218,#219,#264,.T.);
#153=EDGE_CURVE('',#219,#220,#265,.T.);
#154=EDGE_CURVE('',#220,#221,#266,.T.);
#155=EDGE_CURVE('',#222,#221,#267,.T.);
#156=EDGE_CURVE('',#223,#222,#268,.T.);
#157=EDGE_CURVE('',#223,#224,#269,.T.);
#158=EDGE_CURVE('',#225,#224,#270,.T.);
#159=EDGE_CURVE('',#214,#225,#271,.T.);
#160=EDGE_CURVE('',#226,#217,#15,.T.);
#161=EDGE_CURVE('',#227,#226,#272,.T.);
#162=EDGE_CURVE('',#227,#228,#273,.T.);
#163=EDGE_CURVE('',#229,#228,#274,.T.);
#164=EDGE_CURVE('',#229,#218,#275,.T.);
#165=EDGE_CURVE('',#230,#231,#276,.T.);
#166=EDGE_CURVE('',#231,#216,#277,.T.);
#167=EDGE_CURVE('',#232,#215,#278,.T.);
#168=EDGE_CURVE('',#232,#233,#279,.T.);
#169=EDGE_CURVE('',#230,#233,#280,.T.);
#170=EDGE_CURVE('',#234,#235,#281,.T.);
#171=EDGE_CURVE('',#234,#236,#282,.T.);
#172=EDGE_CURVE('',#236,#237,#283,.T.);
#173=EDGE_CURVE('',#235,#237,#284,.T.);
#174=EDGE_CURVE('',#238,#239,#285,.T.);
#175=EDGE_CURVE('',#239,#240,#286,.T.);
#176=EDGE_CURVE('',#241,#240,#287,.T.);
#177=EDGE_CURVE('',#238,#241,#288,.T.);
#178=EDGE_CURVE('',#242,#243,#289,.T.);
#179=EDGE_CURVE('',#244,#242,#290,.T.);
#180=EDGE_CURVE('',#244,#245,#291,.T.);
#181=EDGE_CURVE('',#245,#243,#292,.T.);
#182=EDGE_CURVE('',#246,#247,#293,.T.);
#183=EDGE_CURVE('',#247,#248,#294,.T.);
#184=EDGE_CURVE('',#249,#248,#295,.T.);
#185=EDGE_CURVE('',#246,#249,#296,.T.);
#186=EDGE_CURVE('',#223,#234,#297,.T.);
#187=EDGE_CURVE('',#222,#236,#298,.T.);
#188=EDGE_CURVE('',#220,#235,#299,.T.);
#189=EDGE_CURVE('',#221,#237,#300,.T.);
#190=EDGE_CURVE('',#250,#219,#301,.T.);
#191=EDGE_CURVE('',#229,#251,#302,.T.);
#192=EDGE_CURVE('',#251,#250,#303,.T.);
#193=EDGE_CURVE('',#252,#224,#304,.T.);
#194=EDGE_CURVE('',#253,#252,#305,.T.);
#195=EDGE_CURVE('',#254,#253,#306,.T.);
#196=EDGE_CURVE('',#254,#225,#307,.T.);
#197=EDGE_CURVE('',#255,#250,#308,.T.);
#198=EDGE_CURVE('',#251,#256,#309,.T.);
#199=EDGE_CURVE('',#256,#255,#310,.T.);
#200=EDGE_CURVE('',#252,#255,#12,.T.);
#201=EDGE_CURVE('',#256,#253,#13,.F.);
#202=EDGE_CURVE('',#232,#242,#311,.T.);
#203=EDGE_CURVE('',#231,#243,#312,.T.);
#204=EDGE_CURVE('',#226,#245,#313,.T.);
#205=EDGE_CURVE('',#257,#244,#314,.T.);
#206=EDGE_CURVE('',#257,#258,#315,.T.);
#207=EDGE_CURVE('',#258,#259,#316,.T.);
#208=EDGE_CURVE('',#259,#254,#317,.T.);
#209=EDGE_CURVE('',#257,#214,#318,.T.);
#210=EDGE_CURVE('',#247,#239,#319,.T.);
#211=EDGE_CURVE('',#248,#238,#320,.T.);
#212=EDGE_CURVE('',#249,#241,#321,.T.);
#213=EDGE_CURVE('',#246,#240,#322,.T.);
#214=VERTEX_POINT('',#630);
#215=VERTEX_POINT('',#631);
#216=VERTEX_POINT('',#633);
#217=VERTEX_POINT('',#635);
#218=VERTEX_POINT('',#637);
#219=VERTEX_POINT('',#639);
#220=VERTEX_POINT('',#641);
#221=VERTEX_POINT('',#643);
#222=VERTEX_POINT('',#645);
#223=VERTEX_POINT('',#647);
#224=VERTEX_POINT('',#649);
#225=VERTEX_POINT('',#651);
#226=VERTEX_POINT('',#658);
#227=VERTEX_POINT('',#660);
#228=VERTEX_POINT('',#662);
#229=VERTEX_POINT('',#664);
#230=VERTEX_POINT('',#668);
#231=VERTEX_POINT('',#669);
#232=VERTEX_POINT('',#672);
#233=VERTEX_POINT('',#674);
#234=VERTEX_POINT('',#678);
#235=VERTEX_POINT('',#679);
#236=VERTEX_POINT('',#681);
#237=VERTEX_POINT('',#683);
#238=VERTEX_POINT('',#686);
#239=VERTEX_POINT('',#687);
#240=VERTEX_POINT('',#689);
#241=VERTEX_POINT('',#691);
#242=VERTEX_POINT('',#695);
#243=VERTEX_POINT('',#696);
#244=VERTEX_POINT('',#698);
#245=VERTEX_POINT('',#700);
#246=VERTEX_POINT('',#703);
#247=VERTEX_POINT('',#704);
#248=VERTEX_POINT('',#706);
#249=VERTEX_POINT('',#708);
#250=VERTEX_POINT('',#718);
#251=VERTEX_POINT('',#720);
#252=VERTEX_POINT('',#724);
#253=VERTEX_POINT('',#726);
#254=VERTEX_POINT('',#728);
#255=VERTEX_POINT('',#732);
#256=VERTEX_POINT('',#734);
#257=VERTEX_POINT('',#746);
#258=VERTEX_POINT('',#748);
#259=VERTEX_POINT('',#750);
#260=LINE('',#629,#323);
#261=LINE('',#632,#324);
#262=LINE('',#634,#325);
#263=LINE('',#636,#326);
#264=LINE('',#638,#327);
#265=LINE('',#640,#328);
#266=LINE('',#642,#329);
#267=LINE('',#644,#330);
#268=LINE('',#646,#331);
#269=LINE('',#648,#332);
#270=LINE('',#650,#333);
#271=LINE('',#652,#334);
#272=LINE('',#659,#335);
#273=LINE('',#661,#336);
#274=LINE('',#663,#337);
#275=LINE('',#665,#338);
#276=LINE('',#667,#339);
#277=LINE('',#670,#340);
#278=LINE('',#671,#341);
#279=LINE('',#673,#342);
#280=LINE('',#675,#343);
#281=LINE('',#677,#344);
#282=LINE('',#680,#345);
#283=LINE('',#682,#346);
#284=LINE('',#684,#347);
#285=LINE('',#685,#348);
#286=LINE('',#688,#349);
#287=LINE('',#690,#350);
#288=LINE('',#692,#351);
#289=LINE('',#694,#352);
#290=LINE('',#697,#353);
#291=LINE('',#699,#354);
#292=LINE('',#701,#355);
#293=LINE('',#702,#356);
#294=LINE('',#705,#357);
#295=LINE('',#707,#358);
#296=LINE('',#709,#359);
#297=LINE('',#711,#360);
#298=LINE('',#712,#361);
#299=LINE('',#714,#362);
#300=LINE('',#715,#363);
#301=LINE('',#717,#364);
#302=LINE('',#719,#365);
#303=LINE('',#721,#366);
#304=LINE('',#723,#367);
#305=LINE('',#725,#368);
#306=LINE('',#727,#369);
#307=LINE('',#729,#370);
#308=LINE('',#731,#371);
#309=LINE('',#733,#372);
#310=LINE('',#735,#373);
#311=LINE('',#740,#374);
#312=LINE('',#741,#375);
#313=LINE('',#744,#376);
#314=LINE('',#745,#377);
#315=LINE('',#747,#378);
#316=LINE('',#749,#379);
#317=LINE('',#751,#380);
#318=LINE('',#753,#381);
#319=LINE('',#758,#382);
#320=LINE('',#759,#383);
#321=LINE('',#761,#384);
#322=LINE('',#763,#385);
#323=VECTOR('',#518,1.);
#324=VECTOR('',#519,1.);
#325=VECTOR('',#520,1.);
#326=VECTOR('',#521,1.);
#327=VECTOR('',#522,1.);
#328=VECTOR('',#523,1.);
#329=VECTOR('',#524,1.);
#330=VECTOR('',#525,1.);
#331=VECTOR('',#526,1.);
#332=VECTOR('',#527,1.);
#333=VECTOR('',#528,1.);
#334=VECTOR('',#529,1.);
#335=VECTOR('',#532,1.);
#336=VECTOR('',#533,1.);
#337=VECTOR('',#534,1.);
#338=VECTOR('',#535,1.);
#339=VECTOR('',#538,1.);
#340=VECTOR('',#539,1.);
#341=VECTOR('',#540,1.);
#342=VECTOR('',#541,1.);
#343=VECTOR('',#542,1.);
#344=VECTOR('',#545,1.);
#345=VECTOR('',#546,1.);
#346=VECTOR('',#547,1.);
#347=VECTOR('',#548,1.);
#348=VECTOR('',#549,1.);
#349=VECTOR('',#550,1.);
#350=VECTOR('',#551,1.);
#351=VECTOR('',#552,1.);
#352=VECTOR('',#555,1.);
#353=VECTOR('',#556,1.);
#354=VECTOR('',#557,1.);
#355=VECTOR('',#558,1.);
#356=VECTOR('',#559,1.);
#357=VECTOR('',#560,1.);
#358=VECTOR('',#561,1.);
#359=VECTOR('',#562,1.);
#360=VECTOR('',#565,1.);
#361=VECTOR('',#566,1.);
#362=VECTOR('',#569,1.);
#363=VECTOR('',#570,1.);
#364=VECTOR('',#573,1.);
#365=VECTOR('',#574,1.);
#366=VECTOR('',#575,1.);
#367=VECTOR('',#578,1.);
#368=VECTOR('',#579,1.);
#369=VECTOR('',#580,1.);
#370=VECTOR('',#581,1.);
#371=VECTOR('',#584,1.);
#372=VECTOR('',#585,1.);
#373=VECTOR('',#586,1.);
#374=VECTOR('',#595,1.);
#375=VECTOR('',#596,1.);
#376=VECTOR('',#601,1.);
#377=VECTOR('',#602,1.);
#378=VECTOR('',#603,1.);
#379=VECTOR('',#604,1.);
#380=VECTOR('',#605,1.);
#381=VECTOR('',#608,1.);
#382=VECTOR('',#617,1.);
#383=VECTOR('',#618,1.);
#384=VECTOR('',#621,1.);
#385=VECTOR('',#624,1.);
#386=EDGE_LOOP('',(#16,#17,#18,#19,#20,#21,#22,#23,#24,#25,#26,#27));
#387=EDGE_LOOP('',(#28,#29,#30,#31,#32,#33));
#388=EDGE_LOOP('',(#34,#35,#36,#37,#38,#39));
#389=EDGE_LOOP('',(#40,#41,#42,#43));
#390=EDGE_LOOP('',(#44,#45,#46,#47));
#391=EDGE_LOOP('',(#48,#49,#50,#51));
#392=EDGE_LOOP('',(#52,#53,#54,#55));
#393=EDGE_LOOP('',(#56,#57,#58,#59));
#394=EDGE_LOOP('',(#60,#61,#62,#63));
#395=EDGE_LOOP('',(#64,#65,#66,#67,#68));
#396=EDGE_LOOP('',(#69,#70,#71,#72,#73));
#397=EDGE_LOOP('',(#74,#75,#76,#77));
#398=EDGE_LOOP('',(#78,#79,#80,#81));
#399=EDGE_LOOP('',(#82,#83,#84,#85,#86,#87));
#400=EDGE_LOOP('',(#88,#89,#90,#91));
#401=EDGE_LOOP('',(#92,#93,#94,#95,#96,#97,#98,#99,#100,#101,#102,#103,
#104));
#402=EDGE_LOOP('',(#105,#106,#107,#108,#109,#110));
#403=EDGE_LOOP('',(#111,#112,#113,#114,#115,#116));
#404=EDGE_LOOP('',(#117,#118,#119,#120,#121,#122));
#405=EDGE_LOOP('',(#123,#124,#125,#126,#127,#128,#129,#130,#131));
#406=EDGE_LOOP('',(#132,#133,#134,#135));
#407=EDGE_LOOP('',(#136,#137,#138,#139));
#408=EDGE_LOOP('',(#140,#141,#142,#143));
#409=EDGE_LOOP('',(#144,#145,#146,#147));
#410=FACE_BOUND('',#386,.T.);
#411=FACE_BOUND('',#387,.T.);
#412=FACE_BOUND('',#388,.T.);
#413=FACE_BOUND('',#389,.T.);
#414=FACE_BOUND('',#390,.T.);
#415=FACE_BOUND('',#391,.T.);
#416=FACE_BOUND('',#392,.T.);
#417=FACE_BOUND('',#393,.T.);
#418=FACE_BOUND('',#394,.T.);
#419=FACE_BOUND('',#395,.T.);
#420=FACE_BOUND('',#396,.T.);
#421=FACE_BOUND('',#397,.T.);
#422=FACE_BOUND('',#398,.T.);
#423=FACE_BOUND('',#399,.T.);
#424=FACE_BOUND('',#400,.T.);
#425=FACE_BOUND('',#401,.T.);
#426=FACE_BOUND('',#402,.T.);
#427=FACE_BOUND('',#403,.T.);
#428=FACE_BOUND('',#404,.T.);
#429=FACE_BOUND('',#405,.T.);
#430=FACE_BOUND('',#406,.T.);
#431=FACE_BOUND('',#407,.T.);
#432=FACE_BOUND('',#408,.T.);
#433=FACE_BOUND('',#409,.T.);
#434=PLANE('',#490);
#435=PLANE('',#491);
#436=PLANE('',#492);
#437=PLANE('',#493);
#438=PLANE('',#494);
#439=PLANE('',#495);
#440=PLANE('',#496);
#441=PLANE('',#497);
#442=PLANE('',#498);
#443=PLANE('',#499);
#444=PLANE('',#503);
#445=PLANE('',#504);
#446=PLANE('',#505);
#447=PLANE('',#506);
#448=PLANE('',#507);
#449=PLANE('',#508);
#450=PLANE('',#509);
#451=PLANE('',#510);
#452=PLANE('',#511);
#453=PLANE('',#512);
#454=PLANE('',#513);
#455=ADVANCED_FACE('',(#410),#434,.T.);
#456=ADVANCED_FACE('',(#411),#435,.F.);
#457=ADVANCED_FACE('',(#412),#436,.T.);
#458=ADVANCED_FACE('',(#413,#414),#437,.F.);
#459=ADVANCED_FACE('',(#415,#416),#438,.T.);
#460=ADVANCED_FACE('',(#417),#439,.F.);
#461=ADVANCED_FACE('',(#418),#440,.T.);
#462=ADVANCED_FACE('',(#419),#441,.F.);
#463=ADVANCED_FACE('',(#420),#442,.T.);
#464=ADVANCED_FACE('',(#421),#443,.F.);
#465=ADVANCED_FACE('',(#422),#14,.F.);
#466=ADVANCED_FACE('',(#423),#444,.T.);
#467=ADVANCED_FACE('',(#424),#445,.F.);
#468=ADVANCED_FACE('',(#425),#446,.F.);
#469=ADVANCED_FACE('',(#426),#447,.T.);
#470=ADVANCED_FACE('',(#427),#448,.F.);
#471=ADVANCED_FACE('',(#428),#449,.F.);
#472=ADVANCED_FACE('',(#429),#450,.T.);
#473=ADVANCED_FACE('',(#430),#451,.T.);
#474=ADVANCED_FACE('',(#431),#452,.F.);
#475=ADVANCED_FACE('',(#432),#453,.F.);
#476=ADVANCED_FACE('',(#433),#454,.T.);
#477=CLOSED_SHELL('',(#455,#456,#457,#458,#459,#460,#461,#462,#463,#464,
#465,#466,#467,#468,#469,#470,#471,#472,#473,#474,#475,#476));
#478=STYLED_ITEM('',(#479),#486);
#479=PRESENTATION_STYLE_ASSIGNMENT((#480));
#480=SURFACE_STYLE_USAGE(.BOTH.,#481);
#481=SURFACE_SIDE_STYLE('',(#482));
#482=SURFACE_STYLE_FILL_AREA(#483);
#483=FILL_AREA_STYLE('',(#484));
#484=FILL_AREA_STYLE_COLOUR('',#485);
#485=COLOUR_RGB('',0.615686274509804,0.811764705882353,0.929411764705882);
#486=MANIFOLD_SOLID_BREP('Part 1',#477);
#487=SHAPE_DEFINITION_REPRESENTATION(#771,#488);
#488=SHAPE_REPRESENTATION('Part 1',(#489),#766);
#489=AXIS2_PLACEMENT_3D('',#627,#514,#515);
#490=AXIS2_PLACEMENT_3D('',#628,#516,#517);
#491=AXIS2_PLACEMENT_3D('',#653,#530,#531);
#492=AXIS2_PLACEMENT_3D('',#666,#536,#537);
#493=AXIS2_PLACEMENT_3D('',#676,#543,#544);
#494=AXIS2_PLACEMENT_3D('',#693,#553,#554);
#495=AXIS2_PLACEMENT_3D('',#710,#563,#564);
#496=AXIS2_PLACEMENT_3D('',#713,#567,#568);
#497=AXIS2_PLACEMENT_3D('',#716,#571,#572);
#498=AXIS2_PLACEMENT_3D('',#722,#576,#577);
#499=AXIS2_PLACEMENT_3D('',#730,#582,#583);
#500=AXIS2_PLACEMENT_3D('',#736,#587,#588);
#501=AXIS2_PLACEMENT_3D('',#737,#589,#590);
#502=AXIS2_PLACEMENT_3D('',#738,#591,#592);
#503=AXIS2_PLACEMENT_3D('',#739,#593,#594);
#504=AXIS2_PLACEMENT_3D('',#742,#597,#598);
#505=AXIS2_PLACEMENT_3D('',#743,#599,#600);
#506=AXIS2_PLACEMENT_3D('',#752,#606,#607);
#507=AXIS2_PLACEMENT_3D('',#754,#609,#610);
#508=AXIS2_PLACEMENT_3D('',#755,#611,#612);
#509=AXIS2_PLACEMENT_3D('',#756,#613,#614);
#510=AXIS2_PLACEMENT_3D('',#757,#615,#616);
#511=AXIS2_PLACEMENT_3D('',#760,#619,#620);
#512=AXIS2_PLACEMENT_3D('',#762,#622,#623);
#513=AXIS2_PLACEMENT_3D('',#764,#625,#626);
#514=DIRECTION('',(0.,0.,1.));
#515=DIRECTION('',(1.,0.,0.));
#516=DIRECTION('',(1.,0.,0.));
#517=DIRECTION('',(0.,0.,-1.));
#518=DIRECTION('',(0.,0.,-1.));
#519=DIRECTION('',(0.,-1.,-1.1766535205269E-16));
#520=DIRECTION('',(0.,0.,-1.));
#521=DIRECTION('',(0.,-1.,0.));
#522=DIRECTION('',(0.,0.,1.));
#523=DIRECTION('',(0.,-1.,0.));
#524=DIRECTION('',(0.,0.,-1.));
#525=DIRECTION('',(0.,-1.,0.));
#526=DIRECTION('',(0.,0.,-1.));
#527=DIRECTION('',(0.,-1.,0.));
#528=DIRECTION('',(0.,0.,1.));
#529=DIRECTION('',(0.,-1.,0.));
#530=DIRECTION('',(0.,0.,1.));
#531=DIRECTION('',(1.,0.,0.));
#532=DIRECTION('',(-1.33440267382831E-16,-1.,0.));
#533=DIRECTION('',(-1.,0.,0.));
#534=DIRECTION('',(0.,-1.,0.));
#535=DIRECTION('',(1.,0.,0.));
#536=DIRECTION('',(0.,-1.1766535205269E-16,1.));
#537=DIRECTION('',(0.,-1.,-1.1766535205269E-16));
#538=DIRECTION('',(-6.67201336914157E-17,-1.,0.));
#539=DIRECTION('',(1.,0.,0.));
#540=DIRECTION('',(1.,0.,0.));
#541=DIRECTION('',(-6.67201336914157E-17,-1.,0.));
#542=DIRECTION('',(6.67201336914157E-17,1.,1.1766535205269E-16));
#543=DIRECTION('',(1.,0.,0.));
#544=DIRECTION('',(0.,0.,-1.));
#545=DIRECTION('',(0.,-1.,0.));
#546=DIRECTION('',(0.,0.,-1.));
#547=DIRECTION('',(0.,-1.,0.));
#548=DIRECTION('',(0.,0.,-1.));
#549=DIRECTION('',(0.,0.,-1.));
#550=DIRECTION('',(0.,1.,-8.67361737988404E-17));
#551=DIRECTION('',(0.,0.,-1.));
#552=DIRECTION('',(0.,1.,-1.7347234759768E-16));
#553=DIRECTION('',(1.,-1.33440267382831E-16,0.));
#554=DIRECTION('',(1.33440267382831E-16,1.,0.));
#555=DIRECTION('',(-1.33440267382831E-16,-1.,0.));
#556=DIRECTION('',(0.,0.,-1.));
#557=DIRECTION('',(-1.33440267382831E-16,-1.,0.));
#558=DIRECTION('',(0.,0.,-1.));
#559=DIRECTION('',(-1.33440267382831E-16,-1.,8.67361737988404E-17));
#560=DIRECTION('',(0.,0.,1.));
#561=DIRECTION('',(-1.33440267382831E-16,-1.,1.7347234759768E-16));
#562=DIRECTION('',(0.,0.,1.));
#563=DIRECTION('',(0.,-1.,0.));
#564=DIRECTION('',(0.,0.,-1.));
#565=DIRECTION('',(-1.,0.,0.));
#566=DIRECTION('',(-1.,0.,0.));
#567=DIRECTION('',(0.,-1.,0.));
#568=DIRECTION('',(0.,0.,-1.));
#569=DIRECTION('',(-1.,0.,0.));
#570=DIRECTION('',(-1.,0.,0.));
#571=DIRECTION('',(0.,-1.,0.));
#572=DIRECTION('',(0.,0.,-1.));
#573=DIRECTION('',(1.,0.,0.));
#574=DIRECTION('',(-1.,0.,0.));
#575=DIRECTION('',(0.,0.,1.));
#576=DIRECTION('',(0.,-1.,0.));
#577=DIRECTION('',(0.,0.,-1.));
#578=DIRECTION('',(1.,0.,0.));
#579=DIRECTION('',(0.,0.,1.));
#580=DIRECTION('',(-1.,0.,0.));
#581=DIRECTION('',(1.,0.,0.));
#582=DIRECTION('',(-1.,0.,0.));
#583=DIRECTION('',(0.,0.,1.));
#584=DIRECTION('',(0.,-1.,0.));
#585=DIRECTION('',(0.,1.,0.));
#586=DIRECTION('',(0.,0.,1.));
#587=DIRECTION('',(0.,0.,1.));
#588=DIRECTION('',(1.,0.,0.));
#589=DIRECTION('',(0.,0.,1.));
#590=DIRECTION('',(1.,0.,0.));
#591=DIRECTION('',(0.,0.,1.));
#592=DIRECTION('',(1.,0.,0.));
#593=DIRECTION('',(0.,0.,1.));
#594=DIRECTION('',(1.,0.,0.));
#595=DIRECTION('',(-1.,1.34474688060218E-16,0.));
#596=DIRECTION('',(-1.,1.34474688060218E-16,0.));
#597=DIRECTION('',(0.,0.,1.));
#598=DIRECTION('',(1.,0.,0.));
#599=DIRECTION('',(0.,0.,1.));
#600=DIRECTION('',(1.,0.,0.));
#601=DIRECTION('',(-1.,1.34474688060218E-16,0.));
#602=DIRECTION('',(-1.,1.34474688060218E-16,0.));
#603=DIRECTION('',(-1.33440267382831E-16,-1.,0.));
#604=DIRECTION('',(-1.,0.,0.));
#605=DIRECTION('',(0.,-1.,0.));
#606=DIRECTION('',(-1.34474688060218E-16,-1.,0.));
#607=DIRECTION('',(1.,-1.34474688060218E-16,0.));
#608=DIRECTION('',(1.,0.,0.));
#609=DIRECTION('',(-1.34474688060218E-16,-1.,0.));
#610=DIRECTION('',(1.,-1.34474688060218E-16,0.));
#611=DIRECTION('',(0.,0.,1.));
#612=DIRECTION('',(1.,0.,0.));
#613=DIRECTION('',(0.,0.,1.));
#614=DIRECTION('',(1.,0.,0.));
#615=DIRECTION('',(0.,1.,0.));
#616=DIRECTION('',(0.,0.,1.));
#617=DIRECTION('',(-1.,0.,0.));
#618=DIRECTION('',(-1.,0.,0.));
#619=DIRECTION('',(0.,1.7347234759768E-16,1.));
#620=DIRECTION('',(0.,-1.,1.7347234759768E-16));
#621=DIRECTION('',(-1.,0.,0.));
#622=DIRECTION('',(0.,1.,0.));
#623=DIRECTION('',(0.,0.,1.));
#624=DIRECTION('',(-1.,0.,0.));
#625=DIRECTION('',(0.,8.67361737988404E-17,1.));
#626=DIRECTION('',(0.,-1.,8.67361737988404E-17));
#627=CARTESIAN_POINT('',(0.,0.,0.));
#628=CARTESIAN_POINT('',(0.0135,0.,0.021));
#629=CARTESIAN_POINT('',(0.0135,0.013,0.00966317719221115));
#630=CARTESIAN_POINT('',(0.0135,0.013,0.0180001771922112));
#631=CARTESIAN_POINT('',(0.0135,0.013,0.00100017719221115));
#632=CARTESIAN_POINT('',(0.0135,1.91794523845886E-20,0.00100017719221115));
#633=CARTESIAN_POINT('',(0.0135,-0.013,0.00100017719221115));
#634=CARTESIAN_POINT('',(0.0135,-0.013,0.00966317719221115));
#635=CARTESIAN_POINT('',(0.0135,-0.013,0.0180001771922112));
#636=CARTESIAN_POINT('',(0.0135,0.,0.0180001771922112));
#637=CARTESIAN_POINT('',(0.0135,-0.00984374992549419,0.0180001771922112));
#638=CARTESIAN_POINT('',(0.0135,-0.00984374992549419,0.0175));
#639=CARTESIAN_POINT('',(0.0135,-0.00984374992549419,0.02));
#640=CARTESIAN_POINT('',(0.0135,0.,0.02));
#641=CARTESIAN_POINT('',(0.0135,-0.0136,0.02));
#642=CARTESIAN_POINT('',(0.0135,-0.0136,0.021));
#643=CARTESIAN_POINT('',(0.0135,-0.0136,0.));
#644=CARTESIAN_POINT('',(0.0135,0.,0.));
#645=CARTESIAN_POINT('',(0.0135,0.0136,0.));
#646=CARTESIAN_POINT('',(0.0135,0.0136,0.021));
#647=CARTESIAN_POINT('',(0.0135,0.0136,0.02));
#648=CARTESIAN_POINT('',(0.0135,0.,0.02));
#649=CARTESIAN_POINT('',(0.0135,0.0098,0.02));
#650=CARTESIAN_POINT('',(0.0135,0.0098,0.0175));
#651=CARTESIAN_POINT('',(0.0135,0.0098,0.0180001771922112));
#652=CARTESIAN_POINT('',(0.0135,0.,0.0180001771922112));
#653=CARTESIAN_POINT('',(0.0085,0.,0.0180001771922112));
#654=CARTESIAN_POINT('',(0.0129,-0.013,0.0180001771922111));
#655=CARTESIAN_POINT('',(0.0131,-0.013,0.0180001771922111));
#656=CARTESIAN_POINT('',(0.0133,-0.013,0.0180001771922111));
#657=CARTESIAN_POINT('',(0.0135,-0.013,0.0180001771922111));
#658=CARTESIAN_POINT('',(0.0129,-0.013,0.0180000872117915));
#659=CARTESIAN_POINT('',(0.0129,-1.7347234759768E-18,0.018));
#660=CARTESIAN_POINT('',(0.0129,-0.0129,0.0180000885961056));
#661=CARTESIAN_POINT('',(0.0085,-0.0129,0.018));
#662=CARTESIAN_POINT('',(0.0085,-0.0129,0.0180000885961056));
#663=CARTESIAN_POINT('',(0.0085,0.,0.018));
#664=CARTESIAN_POINT('',(0.0085,-0.00984374992549419,0.0180000885961056));
#665=CARTESIAN_POINT('',(0.0085,-0.00984374992549419,0.0180001771922112));
#666=CARTESIAN_POINT('',(0.0085,1.91794523845886E-20,0.00100017719221115));
#667=CARTESIAN_POINT('',(0.0129,0.,0.001));
#668=CARTESIAN_POINT('',(0.0129,-0.0129,0.001));
#669=CARTESIAN_POINT('',(0.0129,-0.013,0.00100017719221115));
#670=CARTESIAN_POINT('',(0.0085,-0.013,0.00100017719221115));
#671=CARTESIAN_POINT('',(0.0085,0.013,0.00100017719221115));
#672=CARTESIAN_POINT('',(0.0129,0.013,0.00100008859610558));
#673=CARTESIAN_POINT('',(0.0129,0.,0.001));
#674=CARTESIAN_POINT('',(0.0129,0.0129,0.001));
#675=CARTESIAN_POINT('',(0.0129,-2.08493839059889E-23,0.00100017719221115));
#676=CARTESIAN_POINT('',(-0.0135,0.,0.021));
#677=CARTESIAN_POINT('',(-0.0135,0.,0.02));
#678=CARTESIAN_POINT('',(-0.0135,0.0136,0.02));
#679=CARTESIAN_POINT('',(-0.0135,-0.0136,0.02));
#680=CARTESIAN_POINT('',(-0.0135,0.0136,0.021));
#681=CARTESIAN_POINT('',(-0.0135,0.0136,0.));
#682=CARTESIAN_POINT('',(-0.0135,0.,0.));
#683=CARTESIAN_POINT('',(-0.0135,-0.0136,0.));
#684=CARTESIAN_POINT('',(-0.0135,-0.0136,0.021));
#685=CARTESIAN_POINT('',(-0.0135,-0.005,0.005));
#686=CARTESIAN_POINT('',(-0.0135,-0.005,0.007));
#687=CARTESIAN_POINT('',(-0.0135,-0.005,0.003));
#688=CARTESIAN_POINT('',(-0.0135,0.,0.003));
#689=CARTESIAN_POINT('',(-0.0135,0.005,0.003));
#690=CARTESIAN_POINT('',(-0.0135,0.005,0.005));
#691=CARTESIAN_POINT('',(-0.0135,0.005,0.007));
#692=CARTESIAN_POINT('',(-0.0135,0.,0.007));
#693=CARTESIAN_POINT('',(-0.0129,1.7347234759768E-18,0.018));
#694=CARTESIAN_POINT('',(-0.0129,1.7347234759768E-18,0.001));
#695=CARTESIAN_POINT('',(-0.0129,0.013,0.001));
#696=CARTESIAN_POINT('',(-0.0129,-0.013,0.001));
#697=CARTESIAN_POINT('',(-0.0129,0.013,0.018));
#698=CARTESIAN_POINT('',(-0.0129,0.013,0.018));
#699=CARTESIAN_POINT('',(-0.0129,1.7347234759768E-18,0.018));
#700=CARTESIAN_POINT('',(-0.0129,-0.013,0.018));
#701=CARTESIAN_POINT('',(-0.0129,-0.013,0.018));
#702=CARTESIAN_POINT('',(-0.0129,4.33680868994201E-19,0.003));
#703=CARTESIAN_POINT('',(-0.0129,0.005,0.003));
#704=CARTESIAN_POINT('',(-0.0129,-0.005,0.003));
#705=CARTESIAN_POINT('',(-0.0129,-0.005,0.018));
#706=CARTESIAN_POINT('',(-0.0129,-0.005,0.007));
#707=CARTESIAN_POINT('',(-0.0129,-1.73472347597682E-19,0.007));
#708=CARTESIAN_POINT('',(-0.0129,0.005,0.007));
#709=CARTESIAN_POINT('',(-0.0129,0.005,0.018));
#710=CARTESIAN_POINT('',(1.7347234759768E-18,0.0136,0.021));
#711=CARTESIAN_POINT('',(1.7347234759768E-18,0.0136,0.02));
#712=CARTESIAN_POINT('',(1.7347234759768E-18,0.0136,0.));
#713=CARTESIAN_POINT('',(0.,-0.0136,0.021));
#714=CARTESIAN_POINT('',(0.,-0.0136,0.02));
#715=CARTESIAN_POINT('',(0.,-0.0136,0.));
#716=CARTESIAN_POINT('',(0.00675,-0.00984374992549419,-1.99999999999853E-6));
#717=CARTESIAN_POINT('',(0.00675,-0.00984374992549419,0.02));
#718=CARTESIAN_POINT('',(0.,-0.00984374992549419,0.02));
#719=CARTESIAN_POINT('',(0.00675,-0.00984374992549419,0.018));
#720=CARTESIAN_POINT('',(0.,-0.00984374992549419,0.018));
#721=CARTESIAN_POINT('',(0.,-0.00984374992549419,-1.99999999999853E-6));
#722=CARTESIAN_POINT('',(0.00675,0.0098,-1.99999999999853E-6));
#723=CARTESIAN_POINT('',(0.00675,0.0098,0.02));
#724=CARTESIAN_POINT('',(6.00076931582203E-19,0.0098,0.02));
#725=CARTESIAN_POINT('',(6.00076931582203E-19,0.0098,-1.99999999999853E-6));
#726=CARTESIAN_POINT('',(0.,0.0098,0.018));
#727=CARTESIAN_POINT('',(0.00675,0.0098,0.018));
#728=CARTESIAN_POINT('',(0.0085,0.0098,0.0180000885961056));
#729=CARTESIAN_POINT('',(0.0085,0.0098,0.0180001771922112));
#730=CARTESIAN_POINT('',(0.,-0.0098218749627471,-1.99999999999853E-6));
#731=CARTESIAN_POINT('',(0.,-0.0098218749627471,0.02));
#732=CARTESIAN_POINT('',(-1.80023079474661E-18,-0.0098,0.02));
#733=CARTESIAN_POINT('',(0.,-0.0098218749627471,0.018));
#734=CARTESIAN_POINT('',(-1.80023079474661E-18,-0.0098,0.018));
#735=CARTESIAN_POINT('',(-1.80023079474661E-18,-0.0098,-1.99999999999853E-6));
#736=CARTESIAN_POINT('',(-6.00076931582203E-19,0.,-1.99999999999853E-6));
#737=CARTESIAN_POINT('',(-6.00076931582203E-19,0.,0.02));
#738=CARTESIAN_POINT('',(-6.00076931582203E-19,0.,0.018));
#739=CARTESIAN_POINT('',(0.,0.,0.001));
#740=CARTESIAN_POINT('',(1.7347234759768E-18,0.013,0.001));
#741=CARTESIAN_POINT('',(-1.7347234759768E-18,-0.013,0.001));
#742=CARTESIAN_POINT('',(0.,0.,0.));
#743=CARTESIAN_POINT('',(0.,0.,0.018));
#744=CARTESIAN_POINT('',(-1.7347234759768E-18,-0.013,0.018));
#745=CARTESIAN_POINT('',(1.7347234759768E-18,0.013,0.018));
#746=CARTESIAN_POINT('',(0.0129,0.013,0.0180000775215924));
#747=CARTESIAN_POINT('',(0.0129,-1.7347234759768E-18,0.018));
#748=CARTESIAN_POINT('',(0.0129,0.0129,0.0180001218196451));
#749=CARTESIAN_POINT('',(0.0085,0.0129,0.018));
#750=CARTESIAN_POINT('',(0.0085,0.0129,0.0180000885961056));
#751=CARTESIAN_POINT('',(0.0085,0.,0.018));
#752=CARTESIAN_POINT('',(1.7347234759768E-18,0.013,0.018));
#753=CARTESIAN_POINT('',(0.0085,0.013,0.0180001771922112));
#754=CARTESIAN_POINT('',(-1.7347234759768E-18,-0.013,0.018));
#755=CARTESIAN_POINT('',(0.0085,0.,0.0180001771922112));
#756=CARTESIAN_POINT('',(0.,0.,0.02));
#757=CARTESIAN_POINT('',(0.0115,-0.005,0.005));
#758=CARTESIAN_POINT('',(0.0115,-0.005,0.003));
#759=CARTESIAN_POINT('',(0.0115,-0.005,0.007));
#760=CARTESIAN_POINT('',(0.0115,0.,0.007));
#761=CARTESIAN_POINT('',(0.0115,0.005,0.007));
#762=CARTESIAN_POINT('',(0.0115,0.005,0.005));
#763=CARTESIAN_POINT('',(0.0115,0.005,0.003));
#764=CARTESIAN_POINT('',(0.0115,0.,0.003));
#765=MECHANICAL_DESIGN_GEOMETRIC_PRESENTATION_REPRESENTATION('',(#478),
#766);
#766=(
GEOMETRIC_REPRESENTATION_CONTEXT(3)
GLOBAL_UNCERTAINTY_ASSIGNED_CONTEXT((#767))
GLOBAL_UNIT_ASSIGNED_CONTEXT((#770,#769,#768))
REPRESENTATION_CONTEXT('Part 1','TOP_LEVEL_ASSEMBLY_PART')
);
#767=UNCERTAINTY_MEASURE_WITH_UNIT(LENGTH_MEASURE(2.10000000000035E-5),
#770,'DISTANCE_ACCURACY_VALUE','Maximum Tolerance applied to model');
#768=(
NAMED_UNIT(*)
SI_UNIT($,.STERADIAN.)
SOLID_ANGLE_UNIT()
);
#769=(
NAMED_UNIT(*)
PLANE_ANGLE_UNIT()
SI_UNIT($,.RADIAN.)
);
#770=(
LENGTH_UNIT()
NAMED_UNIT(*)
SI_UNIT($,.METRE.)
);
#771=PRODUCT_DEFINITION_SHAPE('','',#772);
#772=PRODUCT_DEFINITION('','',#774,#773);
#773=PRODUCT_DEFINITION_CONTEXT('',#780,'design');
#774=PRODUCT_DEFINITION_FORMATION_WITH_SPECIFIED_SOURCE('','',#776,
 .NOT_KNOWN.);
#775=PRODUCT_RELATED_PRODUCT_CATEGORY('','',(#776));
#776=PRODUCT('Part 1','Part 1','Part 1',(#778));
#777=PRODUCT_CATEGORY('','');
#778=PRODUCT_CONTEXT('',#780,'mechanical');
#779=APPLICATION_PROTOCOL_DEFINITION('international standard',
'ap242_managed_model_based_3d_engineering',2020,#780);
#780=APPLICATION_CONTEXT('managed model based 3d engineering');
ENDSEC;
END-ISO-10303-21;
